<svg class="svg-icon" style="width: 1em; height: 1em;vertical-align: middle;fill: currentColor;overflow: hidden;" viewBox="0 0 1024 1024" version="1.1" xmlns="http://www.w3.org/2000/svg"><path d="M283.3 715.1c-26.8 0-40.8-11.5-47.9-21.2-14.9-20.3-9.5-44.7-6.6-54.3 1.5-4.9 3.2-11.2 5.1-18.6 11.9-45.7 34.1-130.9 98.4-171 43.3-27 128.8-36.6 194.4-36.6 39.8 0 137.9 3.9 189.4 40.3 75.6 53.3 94.7 193.8 95.5 199.8 0.1 1 0.2 2 0.2 3.1 0 36.7-21.9 58.6-58.6 58.6H283.3z" fill="#FFFFFF" /><path d="M526.7 437.1c70.2 0 140.4 10.9 175.8 35.9 68 48 85.7 183.6 85.7 183.6 0 19.3-7.6 35-35 35h-470c-36 0-37.3-27.6-32-44.8 10.6-33.9 27-135.1 93.5-176.6 33.4-20.9 107.8-33.1 182-33.1m0-47.3V437v-47.2c-68.9 0-159.4 10.6-207 40.2-72.3 45.1-96 136.2-108.8 185.1-1.9 7.2-3.5 13.4-4.8 17.4-8.6 27.5-4.9 54.9 10.1 75.3 8.5 11.5 28.4 30.8 67 30.8h470c49.9 0 82.2-32.3 82.2-82.2 0-2-0.1-4.1-0.4-6.1-2.1-16-22.8-157.8-105.3-216-54.9-38.7-150.7-44.5-203-44.5z" fill="#262626" /><path d="M449.8 701.8V503l137.5 1.5v197.3z" fill="#262626" /><path d="M464 517.3l109.2 1.1v169.2H464V517.3m-28.3-28.6V716h165.8V490.5l-28-0.3-109.2-1.2-28.6-0.3z" fill="#262626" /><path d="M187.3 515.3C235.8 369 365.4 332.5 518.6 332.5c144.8 0 259.4 36.5 316.3 182.9 53.3 137.1-186.8-7.6-316.3-7.6s-377.5 146.8-331.3 7.5z" fill="#FF6C4A" /><path d="M283.7 385.8s-25.3 97.2 42.5 166.7l43.3-12.7s-53.4-68.7-42.7-178.7l-43.1 24.7zM475.4 331.9s-15.1 92.1 11.9 177.4c0 0 18.2-7.4 57.6-0.5 0 0-31.9-99.5-9-178.5-0.1-0.1-31.3-2.6-60.5 1.6zM690.1 360.1c-23.8 106.7 0 186.4 0 186.4l52.9 15.9s-11.1-101.3-5.2-176.5c0-0.1-34-21.4-47.7-25.8z" fill="#FFAF9F" /><path d="M518.6 332.5c144.8 0 259.4 36.5 316.3 182.9 17.1 44.1 4 59-26.1 59-63.5 0-202.3-66.7-290.2-66.7-87.9 0-230.2 67.6-298.3 67.6-32.3 0-47.8-15.2-33-60C235.8 369 365.4 332.5 518.6 332.5m0-47.2c-130.8 0-312.1 22.3-376.1 215.2-4.6 13.9-18.6 56.1 6 90.3 10.5 14.5 31.4 31.8 71.8 31.8 39 0 88.2-15.1 145.1-32.7C418.6 573.5 479 555 518.6 555c40.3 0 100.3 18.7 153.2 35.2 54 16.9 100.7 31.4 137 31.4 38.8 0 58.7-17.2 68.5-31.6 23.8-34.7 7.1-77.7 1.6-91.8-73.4-188.7-231.1-212.9-360.3-212.9z" fill="#262626" /></svg>